<?xml version="1.0" encoding="UTF-8" standalone="no"?>
<!DOCTYPE svg PUBLIC "-//W3C//DTD SVG 1.1//EN"
 "http://www.w3.org/Graphics/SVG/1.1/DTD/svg11.dtd">
<!-- Generated by graphviz version 2.44.0 (0)
 -->
<!-- Title: G Pages: 1 -->
<svg width="354pt" height="476pt"
 viewBox="0.00 0.00 354.00 476.00" xmlns="http://www.w3.org/2000/svg" xmlns:xlink="http://www.w3.org/1999/xlink">
<g id="graph0" class="graph" transform="scale(1 1) rotate(0) translate(4 472)">
<title>G</title>
<polygon fill="white" stroke="transparent" points="-4,4 -4,-472 350,-472 350,4 -4,4"/>
<!-- local_file.welcome -->
<g id="node1" class="node">
<title>local_file.welcome</title>
<polygon fill="none" stroke="black" points="328.5,-36 187.5,-36 187.5,0 328.5,0 328.5,-36"/>
<text text-anchor="middle" x="258" y="-14.3" font-family="sans-serif" font-size="14.00">local_file.welcome</text>
</g>
<!-- random_uuid.id1 -->
<g id="node4" class="node">
<title>random_uuid.id1</title>
<polygon fill="none" stroke="black" points="134,-36 0,-36 0,0 134,0 134,-36"/>
<text text-anchor="middle" x="67" y="-14.3" font-family="sans-serif" font-size="14.00">random_uuid.id1</text>
</g>
<!-- local_file.welcome&#45;&gt;random_uuid.id1 -->
<g id="edge1" class="edge">
<title>local_file.welcome&#45;&gt;random_uuid.id1</title>
<path fill="none" stroke="black" d="M187.43,-18C173.45,-18 158.7,-18 144.5,-18"/>
<polygon fill="black" stroke="black" points="144.28,-14.5 134.28,-18 144.28,-21.5 144.28,-14.5"/>
</g>
<!-- random_integer.order1 -->
<g id="node2" class="node">
<title>random_integer.order1</title>
<polygon fill="none" stroke="black" points="346,-90 170,-90 170,-54 346,-54 346,-90"/>
<text text-anchor="middle" x="258" y="-68.3" font-family="sans-serif" font-size="14.00">random_integer.order1</text>
</g>
<!-- random_integer.order2 -->
<g id="node3" class="node">
<title>random_integer.order2</title>
<polygon fill="none" stroke="black" points="346,-144 170,-144 170,-108 346,-108 346,-144"/>
<text text-anchor="middle" x="258" y="-122.3" font-family="sans-serif" font-size="14.00">random_integer.order2</text>
</g>
<!-- random_uuid.id2 -->
<g id="node5" class="node">
<title>random_uuid.id2</title>
<polygon fill="none" stroke="black" points="325,-198 191,-198 191,-162 325,-162 325,-198"/>
<text text-anchor="middle" x="258" y="-176.3" font-family="sans-serif" font-size="14.00">random_uuid.id2</text>
</g>
<!-- random_uuid.id3 -->
<g id="node6" class="node">
<title>random_uuid.id3</title>
<polygon fill="none" stroke="black" points="325,-252 191,-252 191,-216 325,-216 325,-252"/>
<text text-anchor="middle" x="258" y="-230.3" font-family="sans-serif" font-size="14.00">random_uuid.id3</text>
</g>
<!-- random_uuid.id4 -->
<g id="node7" class="node">
<title>random_uuid.id4</title>
<polygon fill="none" stroke="black" points="325,-306 191,-306 191,-270 325,-270 325,-306"/>
<text text-anchor="middle" x="258" y="-284.3" font-family="sans-serif" font-size="14.00">random_uuid.id4</text>
</g>
<!-- random_uuid.id5 -->
<g id="node8" class="node">
<title>random_uuid.id5</title>
<polygon fill="none" stroke="black" points="325,-360 191,-360 191,-324 325,-324 325,-360"/>
<text text-anchor="middle" x="258" y="-338.3" font-family="sans-serif" font-size="14.00">random_uuid.id5</text>
</g>
<!-- random_uuid.id6 -->
<g id="node9" class="node">
<title>random_uuid.id6</title>
<polygon fill="none" stroke="black" points="325,-414 191,-414 191,-378 325,-378 325,-414"/>
<text text-anchor="middle" x="258" y="-392.3" font-family="sans-serif" font-size="14.00">random_uuid.id6</text>
</g>
<!-- random_uuid.id7 -->
<g id="node10" class="node">
<title>random_uuid.id7</title>
<polygon fill="none" stroke="black" points="325,-468 191,-468 191,-432 325,-432 325,-468"/>
<text text-anchor="middle" x="258" y="-446.3" font-family="sans-serif" font-size="14.00">random_uuid.id7</text>
</g>
</g>
</svg>
